<?xml version="1.0" standalone="no"?><!DOCTYPE svg PUBLIC "-//W3C//DTD SVG 1.1//EN" "http://www.w3.org/Graphics/SVG/1.1/DTD/svg11.dtd"><svg t="1583131101893" class="icon" viewBox="0 0 1024 1024" version="1.1" xmlns="http://www.w3.org/2000/svg" p-id="1814" width="81" height="81" xmlns:xlink="http://www.w3.org/1999/xlink"><defs><style type="text/css"></style></defs><path d="M888.96 127.872H135.744c-39.808 0-72 32.256-72 72v625.92c0 39.808 32.192 72 72 72h753.088c39.808 0 72-32.192 72-72v-625.92c0-39.68-32.32-72-72-72z m-77.248 72l-268.16 224.128-1.536 1.28-1.408 1.536a35.712 35.712 0 0 1-25.92 11.2H514.56a35.776 35.776 0 0 1-25.792-10.88l-1.408-1.408-273.792-225.856h598.208z m77.184 625.92H135.808V229.184L438.592 478.72c20.416 20.16 47.232 31.296 76.032 31.296h0.448A106.88 106.88 0 0 0 591.36 478.08l297.728-248.768v596.48h-0.128z" fill="#ffffff" opacity=".65" p-id="1815"></path></svg>