<?xml version="1.0" standalone="no"?><!DOCTYPE svg PUBLIC "-//W3C//DTD SVG 1.1//EN" "http://www.w3.org/Graphics/SVG/1.1/DTD/svg11.dtd"><svg t="1582174177660" class="icon" viewBox="0 0 1024 1024" version="1.1" xmlns="http://www.w3.org/2000/svg" p-id="30474" width="81" height="81" xmlns:xlink="http://www.w3.org/1999/xlink"><defs><style type="text/css"></style></defs><path d="M872.106667 1020.586667H151.893333C71.68 1020.586667 6.826667 955.733333 6.826667 875.52V310.613333c0-80.213333 64.853333-145.066667 145.066666-145.066666h721.92c80.213333 0 145.066667 64.853333 145.066667 145.066666v566.613334c-1.706667 78.506667-66.56 143.36-146.773333 143.36zM151.893333 233.813333c-42.666667 0-76.8 34.133333-76.8 76.8v566.613334c0 42.666667 34.133333 76.8 76.8 76.8h721.92c42.666667 0 76.8-34.133333 76.8-76.8V310.613333c0-42.666667-34.133333-76.8-76.8-76.8H151.893333z" p-id="30475" fill="#d81e06"></path><path d="M431.786667 764.586667c-13.653333 0-27.306667-3.413333-39.253334-10.24-20.48-11.946667-34.133333-34.133333-34.133333-58.026667V450.56c0-25.6 15.36-49.493333 37.546667-61.44 25.6-13.653333 54.613333-10.24 78.506666 5.12l196.266667 139.946667c20.48 13.653333 30.72 35.84 29.013333 59.733333-1.706667 23.893333-15.36 44.373333-37.546666 56.32l-196.266667 105.813333c-10.24 5.12-22.186667 8.533333-34.133333 8.533334zM426.666667 450.56v244.053333s3.413333 1.706667 8.533333 0L631.466667 588.8l-196.266667-139.946667c-3.413333 0-6.826667 1.706667-8.533333 1.706667z" p-id="30476" fill="#d81e06"></path><path d="M233.813333 37.546667l107.52 160.426666" p-id="30477" fill="#d81e06"></path><path d="M341.333333 232.106667c-10.24 0-22.186667-5.12-29.013333-15.36L204.8 54.613333c-10.24-15.36-6.826667-37.546667 10.24-47.786666 15.36-10.24 37.546667-6.826667 47.786667 10.24l107.52 162.133333c10.24 15.36 6.826667 37.546667-10.24 47.786667-5.12 3.413333-11.946667 5.12-18.773334 5.12z" p-id="30478" fill="#d81e06"></path><path d="M756.053333 37.546667L648.533333 197.973333" p-id="30479" fill="#d81e06"></path><path d="M648.533333 232.106667c-6.826667 0-13.653333-1.706667-18.773333-5.12-15.36-10.24-20.48-32.426667-10.24-47.786667L727.04 17.066667c10.24-15.36 32.426667-20.48 47.786667-10.24 15.36 10.24 20.48 32.426667 10.24 47.786666l-107.52 162.133334c-8.533333 10.24-18.773333 15.36-29.013334 15.36z" p-id="30480" fill="#d81e06"></path></svg>