<?xml version="1.0" standalone="no"?><!DOCTYPE svg PUBLIC "-//W3C//DTD SVG 1.1//EN" "http://www.w3.org/Graphics/SVG/1.1/DTD/svg11.dtd"><svg t="1582168881961" class="icon" viewBox="0 0 1024 1024" version="1.1" xmlns="http://www.w3.org/2000/svg" p-id="1971" width="81" height="81" xmlns:xlink="http://www.w3.org/1999/xlink"><defs><style type="text/css"></style></defs><path d="M745 386.8c-81.7 0-148.2-66.5-148.2-148.2 0-14.9-12.1-27-27-27s-27 12.1-27 27c0 2.9 0.1 5.7 0.2 8.5-0.1 0.7-0.2 1.4-0.2 2.1v269.5c-27.1-23.4-62.4-37.7-101-37.7-85.4 0-154.9 69.5-154.9 154.9s69.5 154.9 154.9 154.9c83.5 0 151.6-66.4 154.6-149.2 0.1-1 0.3-1.9 0.3-2.9v-263c36.9 39.9 89.7 64.9 148.2 64.9 14.9 0 27-12.1 27-27 0.1-14.7-12-26.8-26.9-26.8zM441.9 736.9c-55.7 0-101-45.3-101-101s45.3-101 101-101 101 45.3 101 101-45.3 101-101 101z" fill="#707070" p-id="1972"></path><path d="M510.8 64.4c-247 0-447.9 200.9-447.9 447.9 0 247 200.9 447.9 447.9 447.9 247 0 447.9-200.9 447.9-447.9 0-247-200.9-447.9-447.9-447.9z m0 841.9c-217.2 0-394-176.7-394-394 0-217.2 176.7-394 394-394 217.2 0 394 176.7 394 394s-176.8 394-394 394z" fill="#707070" p-id="1973"></path></svg>