<?xml version="1.0" standalone="no"?><!DOCTYPE svg PUBLIC "-//W3C//DTD SVG 1.1//EN" "http://www.w3.org/Graphics/SVG/1.1/DTD/svg11.dtd"><svg t="1582173688745" class="icon" viewBox="0 0 1024 1024" version="1.1" xmlns="http://www.w3.org/2000/svg" p-id="8229" xmlns:xlink="http://www.w3.org/1999/xlink" width="81" height="81"><defs><style type="text/css"></style></defs><path d="M254.771 652.698c-90.521 0-163.84 64.102-163.84 143.36s73.319 143.36 163.84 143.36 163.84-64.103 163.84-143.36-73.318-143.36-163.84-143.36z m0 245.76c-67.789 0-122.88-45.876-122.88-102.4s55.091-102.4 122.88-102.4 122.88 45.875 122.88 102.4-55.091 102.4-122.88 102.4z m512-368.64c-90.521 0-163.84 64.102-163.84 143.36s73.319 143.36 163.84 143.36 163.84-64.103 163.84-143.36-73.318-143.36-163.84-143.36z m0 245.76c-67.789 0-122.88-45.876-122.88-102.4s55.091-102.4 122.88-102.4 122.88 45.875 122.88 102.4-55.091 102.4-122.88 102.4z" fill="#d81e06" p-id="8230"></path><path d="M398.131 222.618a20.48 20.48 0 0 1 20.48 20.48v532.48a20.48 20.48 0 0 1-40.96 0v-532.48a20.48 20.48 0 0 1 20.48-20.48zM912.59 84.992a20.48 20.48 0 0 1 20.48 20.48v573.44a20.48 20.48 0 0 1-40.96 0v-573.44a20.48 20.48 0 0 1 20.48-20.48z" fill="#d81e06" p-id="8231"></path><path d="M392.806 223.232L907.06 85.402a20.48 20.48 0 0 1 10.65 39.526l-514.253 137.83a20.48 20.48 0 0 1-10.65-39.526z m107.725 175.923l-107.725 28.877a20.48 20.48 0 0 0 10.65 39.526l97.075-26.01z m431.719-94.617a20.48 20.48 0 0 0-24.986-14.541L541.491 389.12v40.96L917.71 329.728a20.48 20.48 0 0 0 14.54-25.19z" fill="#d81e06" p-id="8232"></path></svg>