<?xml version="1.0" standalone="no"?><!DOCTYPE svg PUBLIC "-//W3C//DTD SVG 1.1//EN" "http://www.w3.org/Graphics/SVG/1.1/DTD/svg11.dtd"><svg t="1583137206088" class="icon" viewBox="0 0 1024 1024" version="1.1" xmlns="http://www.w3.org/2000/svg" p-id="6746" width="81" height="81" xmlns:xlink="http://www.w3.org/1999/xlink"><defs><style type="text/css"></style></defs><path d="M658.109706 492.508064 435.603029 338.068645c-6.255471-4.341888-14.407128-4.851495-21.157879-1.321088-6.748704 3.53143-10.979052 10.517541-10.979052 18.134009l0 314.235844c0 7.67582 4.294816 14.705933 11.124362 18.209734 2.946099 1.511423 6.149047 2.25639 9.339716 2.25639 4.207835 0 8.394181-1.296529 11.939937-3.842515l222.505653-159.796426c5.40101-3.879354 8.581446-10.138918 8.527211-16.788361C666.85181 502.507812 663.572114 496.299413 658.109706 492.508064zM444.399369 629.222795 444.399369 394.000516l166.558433 115.605971L444.399369 629.222795z" p-id="6747" fill="#8a8a8a"></path><path d="M825.429479 149.163251 198.569498 149.163251c-74.29203 0-135.076418 60.784388-135.076418 135.076418l0 455.520661c0 74.29203 60.784388 135.076418 135.076418 135.076418l626.859981 0c74.29203 0 135.076418-60.784388 135.076418-135.076418L960.505897 284.23967C960.505897 209.94764 899.721509 149.163251 825.429479 149.163251zM919.573649 739.76033c0 24.997324-9.833973 48.597835-27.689642 66.454528-17.856693 17.85567-41.457204 27.689642-66.454528 27.689642L198.569498 833.904501c-24.997324 0-48.597835-9.833973-66.454528-27.689642-17.85567-17.856693-27.689642-41.457204-27.689642-66.454528L104.425328 284.23967c0-24.997324 9.833973-48.597835 27.689642-66.454528 17.856693-17.85567 41.457204-27.689642 66.454528-27.689642l626.859981 0c24.997324 0 48.597835 9.833973 66.454528 27.689642 17.85567 17.856693 27.689642 41.457204 27.689642 66.454528L919.573649 739.76033z" p-id="6748" fill="#8a8a8a"></path></svg>