<?xml version="1.0" standalone="no"?><!DOCTYPE svg PUBLIC "-//W3C//DTD SVG 1.1//EN" "http://www.w3.org/Graphics/SVG/1.1/DTD/svg11.dtd"><svg t="1582274908666" class="icon" viewBox="0 0 1024 1024" version="1.1" xmlns="http://www.w3.org/2000/svg" p-id="65821" width="81" height="81" xmlns:xlink="http://www.w3.org/1999/xlink"><defs><style type="text/css"></style></defs><path d="M221.790362 1014.94374c-36.775578 0-68.472488-13.843286-91.662653-40.033785-23.130813-26.121937-35.868929-63.466474-35.868928-105.155968V154.424068c0-41.691541 12.739139-79.041194 35.869952-105.169271 23.193235-26.197662 54.889121-40.044018 91.662652-40.044018 27.752064 0 56.166207 8.159844 84.451414 24.25338l570.119699 358.735338 0.153496 0.088004c50.086745 28.728298 78.901001 72.395844 79.053474 119.806643 0 48.284703-28.559453 91.193978-80.418564 120.835066l-0.163729 0.093121L308.632219 989.273081C278.266631 1006.546489 249.860674 1014.94374 221.790362 1014.94374zM221.790362 63.144132c-44.709271 0-73.598228 35.82902-73.598228 91.279936v715.330942c0 55.43659 28.888957 91.2564 73.598228 91.2564 18.275225 0 38.137599-6.03239 59.034535-17.929348l0.165775-0.095167 566.30993-356.24154c35.544541-20.447704 54.333466-46.232974 54.333466-74.56423-0.105401-37.916565-32.837896-62.23953-52.339042-73.362868l-1.198292-0.713244L278.571576 79.725786l-0.169868-0.096191C259.408121 68.843948 239.833297 63.144132 221.790362 63.144132z" fill="#bfbfbf" p-id="65822"></path></svg>