<?xml version="1.0" standalone="no"?><!DOCTYPE svg PUBLIC "-//W3C//DTD SVG 1.1//EN" "http://www.w3.org/Graphics/SVG/1.1/DTD/svg11.dtd"><svg t="1582173775243" class="icon" viewBox="0 0 1024 1024" version="1.1" xmlns="http://www.w3.org/2000/svg" p-id="11864" width="81" height="81" xmlns:xlink="http://www.w3.org/1999/xlink"><defs><style type="text/css"></style></defs><path d="M779.066545 207.479425 344.993359 207.479425 539.173896 95.365998c17.117866-9.873882 22.985504-31.750121 13.093203-48.867988-9.873882-17.117866-31.750121-22.967084-48.867988-13.093203l-278.828426 160.986531c-6.491855 3.744277-11.361769 9.217942-14.371312 15.500019C106.956987 225.448682 27.798113 314.548976 27.798113 422.128133L27.798113 779.874957c0 118.53979 96.108918 214.647685 214.647685 214.647685l536.620747 0c118.53979 0 214.648708-96.108918 214.648708-214.647685L993.715253 422.128133C993.71423 303.588343 897.605312 207.479425 779.066545 207.479425zM922.16466 761.987564c0 88.918145-72.068386 160.986531-160.986531 160.986531L260.33319 922.974096c-88.918145 0-160.986531-72.068386-160.986531-160.986531L99.346659 440.015525c0-88.918145 72.068386-160.986531 160.986531-160.986531l500.845962 0c88.918145 0 160.986531 72.068386 160.986531 160.986531L922.165684 761.987564z" p-id="11865" fill="#d81e06"></path><path d="M546.530444 672.550603c-19.765159 0-35.774785 16.009625-35.774785 35.774785 0 19.765159 16.009625 35.774785 35.774785 35.774785 19.765159 0 35.774785-16.009625 35.774785-35.774785C582.305229 688.560228 566.296627 672.550603 546.530444 672.550603z" p-id="11866" fill="#d81e06"></path><path d="M796.953937 672.550603l-125.211746 0c-19.765159 0-35.774785 16.009625-35.774785 35.774785 0 19.765159 16.009625 35.774785 35.774785 35.774785l125.211746 0c19.765159 0 35.774785-16.009625 35.774785-35.774785C832.728722 688.560228 816.719096 672.550603 796.953937 672.550603z" p-id="11867" fill="#d81e06"></path><path d="M796.953937 457.902918l-125.211746 0c-19.765159 0-35.774785 16.009625-35.774785 35.774785 0 19.765159 16.009625 35.774785 35.774785 35.774785l125.211746 0c19.765159 0 35.774785-16.009625 35.774785-35.774785C832.728722 473.91152 816.719096 457.902918 796.953937 457.902918z" p-id="11868" fill="#d81e06"></path><path d="M546.530444 457.902918c-19.765159 0-35.774785 16.009625-35.774785 35.774785 0 19.765159 16.009625 35.774785 35.774785 35.774785 19.765159 0 35.774785-16.009625 35.774785-35.774785C582.305229 473.91152 566.296627 457.902918 546.530444 457.902918z" p-id="11869" fill="#d81e06"></path><path d="M313.995367 457.902918c-79.025844 0-143.099139 64.072271-143.099139 143.099139s64.072271 143.099139 143.099139 143.099139 143.099139-64.072271 143.099139-143.099139S393.021212 457.902918 313.995367 457.902918zM313.995367 690.437995c-49.386804 0-89.436962-40.050158-89.436962-89.436962 0-49.386804 40.050158-89.436962 89.436962-89.436962 49.386804 0 89.436962 40.050158 89.436962 89.436962C403.432329 650.387837 363.382171 690.437995 313.995367 690.437995z" p-id="11870" fill="#d81e06"></path></svg>