<?xml version="1.0" standalone="no"?><!DOCTYPE svg PUBLIC "-//W3C//DTD SVG 1.1//EN" "http://www.w3.org/Graphics/SVG/1.1/DTD/svg11.dtd"><svg t="1583137341433" class="icon" viewBox="0 0 1024 1024" version="1.1" xmlns="http://www.w3.org/2000/svg" p-id="9177" width="81" height="81" xmlns:xlink="http://www.w3.org/1999/xlink"><defs><style type="text/css"></style></defs><path d="M512 74.094385c241.20367 0 437.304367 196.213431 437.304367 437.313762 0 241.081541-196.100697 437.294972-437.304367 437.294972S74.695633 752.602422 74.695633 511.398752 270.79633 74.094385 512.009394 74.094385z m0-69.058935C232.372844 5.03545 5.636697 231.771596 5.636697 511.398752c0 279.627156 226.736147 506.363303 506.363303 506.363303 279.627156 0 506.363303-226.736147 506.363303-506.363303 0-279.627156-226.736147-506.363303-506.363303-506.363302z" p-id="9178" fill="#515151"></path><path d="M414.006018 746.721468c-32.890128 0-56.630018-26.445505-56.630018-62.952514V339.02855c0-36.507009 23.852624-62.952514 56.630018-62.952513 11.649174 0 23.505028 3.382018 35.041468 10.05211l298.613431 172.370202c21.475817 12.325578 33.688661 31.65945 33.688661 52.900403 0 21.250349-12.325578 40.58422-33.688661 52.891009L449.056881 736.669358c-11.53644 6.670092-23.288954 10.061505-35.041468 10.061504z" p-id="9179" fill="#515151"></path></svg>