<?xml version="1.0" standalone="no"?><!DOCTYPE svg PUBLIC "-//W3C//DTD SVG 1.1//EN" "http://www.w3.org/Graphics/SVG/1.1/DTD/svg11.dtd"><svg t="1582173753253" class="icon" viewBox="0 0 1024 1024" version="1.1" xmlns="http://www.w3.org/2000/svg" p-id="11009" xmlns:xlink="http://www.w3.org/1999/xlink" width="81" height="81"><defs><style type="text/css"></style></defs><path d="M930.909091 930.909091h23.272727c13.963636 0 23.272727 9.309091 23.272727 23.272727s-9.309091 23.272727-23.272727 23.272727H23.272727c-13.963636 0-23.272727-9.309091-23.272727-23.272727s9.309091-23.272727 23.272727-23.272727H46.545455V418.909091c0-51.2 41.890909-93.090909 93.090909-93.090909h186.181818V232.727273c0-51.2 41.890909-93.090909 93.090909-93.090909h139.636364c51.2 0 93.090909 41.890909 93.090909 93.090909v186.181818h186.181818c51.2 0 93.090909 41.890909 93.090909 93.090909v418.909091zM93.090909 930.909091h232.727273V372.363636H139.636364c-27.927273 0-46.545455 18.618182-46.545455 46.545455v512z m512 0V232.727273c0-27.927273-18.618182-46.545455-46.545454-46.545455H418.909091c-27.927273 0-46.545455 18.618182-46.545455 46.545455v698.181818h232.727273z m46.545455-465.454546v465.454546h232.727272v-418.909091c0-27.927273-18.618182-46.545455-46.545454-46.545455h-186.181818z" p-id="11010" fill="#d81e06"></path></svg>