<?xml version="1.0" standalone="no"?><!DOCTYPE svg PUBLIC "-//W3C//DTD SVG 1.1//EN" "http://www.w3.org/Graphics/SVG/1.1/DTD/svg11.dtd"><svg t="1582176046604" class="icon" viewBox="0 0 1024 1024" version="1.1" xmlns="http://www.w3.org/2000/svg" p-id="58733" xmlns:xlink="http://www.w3.org/1999/xlink" width="81" height="81"><defs><style type="text/css"></style></defs><path d="M768 80h-44a32 32 0 1 0 0 64H768c52.928 0 96 43.072 96 96V864c0 52.928-43.072 96-96 96H256c-52.928 0-96-43.072-96-96V240c0-52.928 43.072-96 96-96h40a32 32 0 0 0 0-64H256c-88.224 0-160 71.776-160 160V864c0 88.224 71.776 160 160 160h512c88.224 0 160-71.776 160-160V240c0-88.224-71.776-160-160-160z" fill="#d81e06" p-id="58734"></path><path d="M416 208h192c44.128 0 80-35.904 80-80V80C688 35.904 652.128 0 608 0h-192a80.096 80.096 0 0 0-80 80V128c0 44.096 35.904 80 80 80z m-16-128c0-8.672 7.328-16 16-16h192c8.672 0 16 7.328 16 16V128c0 8.672-7.328 16-16 16h-192a16.224 16.224 0 0 1-16-16V80zM762.016 342.016h-320a32 32 0 0 0 0 64h320a32 32 0 1 0 0-64z" fill="#d81e06" p-id="58735"></path><path d="M304 374.016m-42.016 0a42.016 42.016 0 1 0 84.032 0 42.016 42.016 0 1 0-84.032 0Z" fill="#d81e06" p-id="58736"></path><path d="M762.016 520h-320a32 32 0 0 0 0 64h320a32 32 0 1 0 0-64z" fill="#d81e06" p-id="58737"></path><path d="M304 552m-42.016 0a42.016 42.016 0 1 0 84.032 0 42.016 42.016 0 1 0-84.032 0Z" fill="#d81e06" p-id="58738"></path><path d="M762.016 712h-320a32 32 0 1 0 0 64h320a32 32 0 1 0 0-64z" fill="#d81e06" p-id="58739"></path><path d="M304 744m-42.016 0a42.016 42.016 0 1 0 84.032 0 42.016 42.016 0 1 0-84.032 0Z" fill="#d81e06" p-id="58740"></path></svg>