<?xml version="1.0" standalone="no"?><!DOCTYPE svg PUBLIC "-//W3C//DTD SVG 1.1//EN" "http://www.w3.org/Graphics/SVG/1.1/DTD/svg11.dtd"><svg t="1583154530787" class="icon" viewBox="0 0 1024 1024" version="1.1" xmlns="http://www.w3.org/2000/svg" p-id="10825" width="81" height="81" xmlns:xlink="http://www.w3.org/1999/xlink"><defs><style type="text/css"></style></defs><path d="M800.256 741.888l47.616-47.616a31.744 31.744 0 0 1 45.056 45.056l-102.4 102.4a31.744 31.744 0 0 1-54.272-22.528V204.8a32.256 32.256 0 0 1 64 0zM153.6 237.056a32.256 32.256 0 0 1 0-64h460.8a32.256 32.256 0 0 1 0 64z m0 307.2a32.256 32.256 0 0 1 0-64h460.8a32.256 32.256 0 0 1 0 64z m0 307.2a32.256 32.256 0 0 1 0-64h460.8a32.256 32.256 0 0 1 0 64z" p-id="10826" fill="#707070"></path></svg>